HIERARCHY
ROOT Hips
{
	OFFSET 0.00000 0.00000 0.00000
	CHANNELS 6 Xposition Yposition Zposition Zrotation Yrotation Xrotation 
	JOINT LHipJoint
	{
		OFFSET 0 0 0
		CHANNELS 3 Zrotation Yrotation Xrotation
		JOINT LeftUpLeg
		{
			OFFSET 1.62964 -1.40469 0.78906
			CHANNELS 3 Zrotation Yrotation Xrotation
			JOINT LeftLeg
			{
				OFFSET 2.29640 -6.30932 0.00000
				CHANNELS 3 Zrotation Yrotation Xrotation
				JOINT LeftFoot
				{
					OFFSET 2.29451 -6.30412 0.00000
					CHANNELS 3 Zrotation Yrotation Xrotation
					JOINT LeftToeBase
					{
						OFFSET 0.03611 -0.09921 1.56387
						CHANNELS 3 Zrotation Yrotation Xrotation
						End Site
						{
							OFFSET 0.00000 -0.00000 0.80291
						}
					}
				}
			}
		}
	}
	JOINT RHipJoint
	{
		OFFSET 0 0 0
		CHANNELS 3 Zrotation Yrotation Xrotation
		JOINT RightUpLeg
		{
			OFFSET -1.73712 -1.40469 0.78906
			CHANNELS 3 Zrotation Yrotation Xrotation
			JOINT RightLeg
			{
				OFFSET -2.28137 -6.26801 0.00000
				CHANNELS 3 Zrotation Yrotation Xrotation
				JOINT RightFoot
				{
					OFFSET -2.28681 -6.28298 0.00000
					CHANNELS 3 Zrotation Yrotation Xrotation
					JOINT RightToeBase
					{
						OFFSET -0.15927 -0.43759 1.61103
						CHANNELS 3 Zrotation Yrotation Xrotation
						End Site
						{
							OFFSET -0.00000 -0.00000 0.84630
						}
					}
				}
			}
		}
	}
	JOINT LowerBack
	{
		OFFSET 0 0 0
		CHANNELS 3 Zrotation Yrotation Xrotation
		JOINT Spine
		{
			OFFSET -0.04227 2.04338 -0.00225
			CHANNELS 3 Zrotation Yrotation Xrotation
			JOINT Spine1
			{
				OFFSET -0.02148 2.04482 -0.04273
				CHANNELS 3 Zrotation Yrotation Xrotation
				JOINT Neck
				{
					OFFSET 0 0 0
					CHANNELS 3 Zrotation Yrotation Xrotation
					JOINT Neck1
					{
						OFFSET 0.09180 1.44629 0.19359
						CHANNELS 3 Zrotation Yrotation Xrotation
						JOINT Head
						{
							OFFSET 0.00887 1.40645 0.14750
							CHANNELS 3 Zrotation Yrotation Xrotation
							End Site
							{
								OFFSET -0.00669 1.50671 0.03707
							}
						}
					}
				}
				JOINT LeftShoulder
				{
					OFFSET 0 0 0
					CHANNELS 3 Zrotation Yrotation Xrotation
					JOINT LeftArm
					{
						OFFSET 2.17674 1.86763 -0.06520
						CHANNELS 3 Zrotation Yrotation Xrotation
						JOINT LeftForeArm
						{
							OFFSET 4.65776 -0.00000 0.00000
							CHANNELS 3 Zrotation Yrotation Xrotation
							JOINT LeftHand
							{
								OFFSET 3.55539 -0.00000 0.00000
								CHANNELS 3 Zrotation Yrotation Xrotation
								JOINT LeftFingerBase
								{
									OFFSET 0 0 0
									CHANNELS 3 Zrotation Yrotation Xrotation
									JOINT LeftHandIndex1
									{
										OFFSET 0.70726 -0.00000 0.00000
										CHANNELS 3 Zrotation Yrotation Xrotation
										End Site
										{
											OFFSET 0.57022 -0.00000 0.00000
										}
									}
								}
								JOINT LThumb
								{
									OFFSET 0 0 0
									CHANNELS 3 Zrotation Yrotation Xrotation
									End Site
									{
										OFFSET 0.57892 -0.00000 0.57892
									}
								}
							}
						}
					}
				}
				JOINT RightShoulder
				{
					OFFSET 0 0 0
					CHANNELS 3 Zrotation Yrotation Xrotation
					JOINT RightArm
					{
						OFFSET -2.80694 1.55459 -0.32496
						CHANNELS 3 Zrotation Yrotation Xrotation
						JOINT RightForeArm
						{
							OFFSET -4.71925 -0.00000 -0.00000
							CHANNELS 3 Zrotation Yrotation Xrotation
							JOINT RightHand
							{
								OFFSET -3.56990 -0.00000 0.00000
								CHANNELS 3 Zrotation Yrotation Xrotation
								JOINT RightFingerBase
								{
									OFFSET 0 0 0
									CHANNELS 3 Zrotation Yrotation Xrotation
									JOINT RightHandIndex1
									{
										OFFSET -0.50776 -0.00000 0.00000
										CHANNELS 3 Zrotation Yrotation Xrotation
										End Site
										{
											OFFSET -0.40937 -0.00000 0.00000
										}
									}
								}
								JOINT RThumb
								{
									OFFSET 0 0 0
									CHANNELS 3 Zrotation Yrotation Xrotation
									End Site
									{
										OFFSET -0.41562 -0.00000 0.41562
									}
								}
							}
						}
					}
				}
			}
		}
	}
}
MOTION
Frames: 8
Frame Time: 0.25
0.00 0.00 0.00 0 0 0 0 0 0 -21 0 0 0 0 0 0 0 0 0 0 0 0 0 0 21 0 0 0 0 0 0 0 0 0 0 0 0 0 0 0 0 0 0 0 0 0 0 -16 0 0 21 0 0 11 0 0 0 -8 0 0 0 0 0 0 0 0 0 0 0 0 0 0 0 0 0 0 0 0 8 0 0 0 0 0 0 0 0 0 0 0 0 0 0 0 0 0
0.00 0.00 0.00 181.0210 -1.9268 -149.8500 0.0000 0.0000 0.0000 -12.5840 -23.5782 -32.3449 1.9299 8.7185 24.9186 0.6966 -3.0709 -15.0239 0.7206 -5.4243 -15.1228 0.0000 0.0000 0.0000 18.3127 18.8981 -29.3377 -1.0205 -6.4266 18.0272 -1.7412 0.3316 -24.8739 -2.6281 10.0672 -29.1946 -4.7097 -0.6199 -25.0416 0.3453 -0.0628 -1.8766 3.0342 -0.5102 11.9077 -5.4604 -0.2181 -0.5486 12.0236 -0.1332 -13.6437 4.6583 -0.8101 -3.9108 0.0000 0.0000 0.0000 -85.7572 -0.9028 20.6402 12.3607 -20.3433 -2.2261 -0.0000 -0.0000 6.8184 22.2757 -12.0766 -4.8985 -7.1250 0.0000 -0.0000 -3.4312 16.9759 2.2840 0.0000 0.0000 0.0000 90.7502 -3.2213 12.5923 -18.6577 28.9912 -4.8638 0.0000 -0.0000 -2.3594 -12.7880 -49.6110 9.8082 7.1250 -0.0000 -0.0000 54.3221 -74.6774 -40.6381
0.00 0.00 0.00 180.5310 -2.6795 -145.8310 0.0000 0.0000 0.0000 -8.6551 -26.6387 -45.0091 4.9082 13.2797 40.4246 0.9784 -8.1583 -17.7293 0.5990 -4.9544 -13.7787 0.0000 0.0000 0.0000 16.5074 18.8209 -42.0052 -3.5298 -11.5070 34.0094 -3.0185 3.2764 -32.1208 -2.6220 10.0564 -29.1595 -4.7543 -1.0196 -21.3150 0.2205 -0.7031 -2.1919 2.7247 -0.7199 9.5828 -1.4031 5.7382 -5.7500 15.1843 6.3477 3.0932 4.9451 3.1709 1.3190 0.0000 0.0000 0.0000 -85.1981 -3.7992 27.6141 14.3476 -23.2294 -2.9638 -0.0000 -0.0000 4.6127 22.8250 -13.6948 -5.6903 -7.1250 0.0000 -0.0000 -3.1291 15.1860 2.2035 0.0000 0.0000 0.0000 90.6664 -0.1630 9.8961 -15.0809 24.2587 -3.2591 0.0000 0.0000 1.6567 -12.5535 -47.5939 9.3370 7.1250 -0.0000 -0.0000 48.4247 -73.4903 -34.6586
0.00 0.00 0.00 179.4140 -4.8251 -147.7770 0.0000 0.0000 0.0000 -8.6316 -27.3543 -51.5997 8.6263 16.5612 54.7887 0.7008 -14.3021 -16.8040 0.0562 -1.5302 -4.2088 0.0000 0.0000 0.0000 16.3567 16.4559 -49.9312 -7.5845 -15.8050 51.0520 -3.8263 2.8043 -36.4550 -3.5179 11.4897 -33.9496 -5.6124 -0.8228 -17.7706 -0.5733 -0.1352 -0.8527 2.5192 -0.3857 9.0719 -0.4297 5.6410 -6.1163 13.8611 6.1286 4.2801 4.4203 3.1539 1.8218 -0.0000 0.0000 0.0000 -84.0670 -4.4687 28.6996 13.9838 -22.7116 -2.8219 -0.0000 -0.0000 4.1499 23.8574 -12.9312 -5.6520 -7.1250 0.0000 -0.0000 -2.3772 15.8949 1.6367 -0.0000 0.0000 0.0000 90.1036 1.8790 14.2706 -14.4743 23.4087 -3.0140 0.0000 0.0000 1.6670 -14.7956 -46.9238 10.9200 7.1250 -0.0000 -0.0000 44.4895 -73.9113 -31.9273
0.00 0.00 0.00 176.9600 -24.9068 -149.3010 0.0000 0.0000 0.0000 -10.3256 -33.5937 -41.1108 5.6329 14.0629 43.4898 -0.4540 -13.2635 -1.5140 0.2528 3.2351 8.9340 0.0000 0.0000 0.0000 20.2597 8.0014 -41.4951 -5.4499 -13.8732 42.7320 -1.7847 -8.7143 -29.6537 -4.2274 12.4570 -37.3683 -5.4658 -0.2634 -19.9346 -0.9521 0.5233 -2.6686 2.1949 -0.0719 8.2057 -8.4335 3.9995 -4.8566 17.5411 4.6928 4.3006 6.8457 2.4867 1.4127 0.0000 -0.0000 0.0000 -79.4519 0.4758 41.9811 17.5093 -27.5243 -4.3201 -0.0000 -0.0000 2.3720 27.2186 -13.3317 -6.7637 -7.1250 0.0000 -0.0000 -0.0975 15.0583 0.0688 0.0000 -0.0000 0.0000 87.9994 -13.1028 20.4514 -19.3097 29.8017 -5.1839 0.0000 -0.0000 -1.5965 -16.4906 -51.5185 13.0474 7.1250 -0.0000 -0.0000 58.7837 -76.9764 -46.7910
0.00 0.00 0.00 176.6660 -30.8834 -148.8170 0.0000 0.0000 0.0000 -11.3833 -30.8801 -35.2421 2.6873 10.1708 29.5315 0.4763 -4.9156 15.7672 0.1290 2.3155 6.3785 0.0000 0.0000 0.0000 20.9007 5.5942 -34.8297 -2.5845 -9.9900 28.9444 0.4004 -13.6621 -13.4948 -4.5951 12.9128 -39.0428 -4.8622 -1.1203 -23.3177 -0.5625 -0.6485 -2.8841 1.9263 -0.6824 9.8752 -10.1293 3.6893 -4.5938 18.4931 4.4283 3.8393 7.4317 2.3403 1.2049 0.0000 0.0000 0.0000 -80.2101 0.7223 39.3667 17.0462 -26.9186 -4.1082 -0.0000 -0.0000 1.6305 27.1007 -12.3596 -6.2511 -7.1250 0.0000 -0.0000 -0.1009 16.1513 0.0688 0.0000 0.0000 0.0000 87.8658 -15.0494 19.7587 -18.9647 29.3748 -5.0135 0.0000 -0.0000 -1.7205 -16.8657 -51.4583 13.3399 7.1250 -0.0000 -0.0000 58.3294 -77.1026 -46.5150
0.00 0.00 0.00 175.9940 -36.4603 -146.4440 0.0000 0.0000 0.0000 -13.4542 -24.7809 -34.6878 0.9792 6.2992 17.6551 3.3263 7.1221 33.1874 0.0262 -1.0458 -2.8748 0.0000 0.0000 0.0000 18.8972 6.9983 -30.6034 -0.8840 -5.9935 16.7657 1.5492 -23.7853 2.2920 -3.2080 11.0244 -32.3622 -4.1384 -2.2148 -27.1368 0.0415 -2.3319 -3.7270 1.5425 -1.5305 11.0420 -11.4067 3.5317 -4.2569 19.0519 4.3317 3.4775 7.8248 2.2750 1.0133 0.0000 -0.0000 0.0000 -81.2563 2.1016 38.0694 17.5071 -27.5214 -4.3191 -0.0000 0.0000 -3.5114 28.6570 -11.2716 -6.0973 -7.1250 0.0000 -0.0000 1.0649 17.1848 -0.7028 0.0000 -0.0000 0.0000 86.6216 -16.6040 20.2373 -18.9378 29.3413 -5.0003 0.0000 -0.0000 -2.0615 -31.0582 -40.1651 21.2283 7.1250 -0.0000 -0.0000 8.5296 -74.4115 -5.9341
0.00 0.00 0.00 160.8560 -80.1367 -133.6000 0.0000 0.0000 0.0000 -17.6120 -17.4242 -31.5503 1.9285 8.7156 24.9097 0.2157 2.1223 8.2918 3.6043 -11.6143 -34.3810 0.0000 0.0000 0.0000 11.8893 18.5337 -31.1066 -1.7933 -8.4215 24.0019 -0.0449 3.4170 -4.1647 -2.4730 9.7887 -28.2951 -5.9602 -6.2128 -26.3927 -0.6930 -6.7733 -3.7728 0.1793 -3.5642 10.9518 -17.6983 2.2089 -0.3639 21.8827 2.3687 3.8007 9.8835 1.1376 0.6048 0.0000 0.0000 0.0000 -82.7423 -4.9926 37.7562 14.8449 -23.9296 -3.1627 -0.0000 -0.0000 4.9129 26.2301 -14.7218 -7.1369 -7.1250 0.0000 -0.0000 -0.8842 13.6551 0.6505 0.0000 0.0000 0.0000 89.1589 -22.2971 18.6363 -18.2985 28.5377 -4.6910 0.0000 -0.0000 -0.7362 -16.0623 -49.3870 12.3292 7.1250 -0.0000 -0.0000 51.0448 -75.8265 -38.9921
